name analog
datacolumns 19
datarows 55
range 0.6295000000000001 0.6565
endheader
time	ground_force_vx	ground_force_vy	ground_force_vz	ground_force_px	ground_force_py	ground_force_pz	l_ground_force_vx	l_ground_force_vy	l_ground_force_vz	l_ground_force_px	l_ground_force_py	l_ground_force_pz	ground_torque_x	ground_torque_y	ground_torque_z	l_ground_torque_x	l_ground_torque_y	l_ground_torque_z
0.6295000000000001	-0.0	-0.0	-0.0	-27.83243751525879	158.5792694091797	-902.5062866210938	-15.722766876220703	-158.76177978515625	-988.5513305664062	-0.0	-0.0	-0.0	-0.0	-0.0	-0.0	256833.984375	-60399.7265625	-1870.1495361328125
0.63	-0.0	-0.0	-0.0	-29.2554931640625	155.81663513183594	-885.9738159179688	-28.17242813110352	-155.39048767089844	-965.380126953125	-0.0	-0.0	-0.0	-0.0	-0.0	-0.0	250826.671875	-57117.26953125	-5683.099609375
0.6305000000000001	-0.0	-0.0	-0.0	-38.28212738037109	152.63601684570312	-865.8886108398438	-26.43494033813477	-152.54248046875	-949.68896484375	-0.0	-0.0	-0.0	-0.0	-0.0	-0.0	246792.21875	-55513.4921875	-5222.46875
0.631	-0.0	-0.0	-0.0	-48.0168342590332	150.82504272460938	-841.4326782226562	-16.871187210083008	-151.118408203125	-937.9517211914062	-0.0	-0.0	-0.0	-0.0	-0.0	-0.0	243660.484375	-55518.36328125	-2373.270263671875
0.6315000000000001	-0.0	-0.0	-0.0	-54.39572143554688	150.7081756591797	-824.7455444335938	-6.332126617431641	-151.06871032714844	-925.3180541992188	-0.0	-0.0	-0.0	-0.0	-0.0	-0.0	240686.53125	-55589.52734375	815.3785400390625
0.632	-0.0	-0.0	-0.0	-54.40898132324219	150.5298614501953	-812.2313842773438	-0.6433295607566833	-150.04220581054688	-910.7193603515624	-0.0	-0.0	-0.0	-0.0	-0.0	-0.0	236613.125	-54998.93359375	2458.699462890625
0.6325000000000001	-0.0	-0.0	-0.0	-48.78477096557617	149.49459838867188	-804.4076538085938	-1.2194520235061646	-146.07415771484375	-889.59912109375	-0.0	-0.0	-0.0	-0.0	-0.0	-0.0	231304.0	-53349.27734375	2261.207763671875
0.633	-0.0	-0.0	-0.0	-39.809906005859375	146.14239501953125	-798.32373046875	-5.115988254547119	-139.092529296875	-861.561279296875	-0.0	-0.0	-0.0	-0.0	-0.0	-0.0	224206.71875	-50678.21875	497.1894836425781
0.6335000000000001	-0.0	-0.0	-0.0	-30.036264419555664	141.43836975097656	-791.1689453125	-9.635353088378906	-131.39776611328125	-831.0972900390625	-0.0	-0.0	-0.0	-0.0	-0.0	-0.0	216391.484375	-48143.74609375	-1330.23193359375
0.634	-0.0	-0.0	-0.0	-21.17036437988281	135.20706176757812	-780.3131103515625	-12.508220672607422	-124.83985137939452	-800.11474609375	-0.0	-0.0	-0.0	-0.0	-0.0	-0.0	208180.265625	-45156.25	-2478.3193359375
0.6345000000000001	-0.0	-0.0	-0.0	-15.907673835754396	127.61248016357422	-766.340087890625	-13.634384155273438	-119.34151458740234	-769.0426635742188	-0.0	-0.0	-0.0	-0.0	-0.0	-0.0	199823.921875	-42857.34765625	-3128.92138671875
0.635	-0.0	-0.0	-0.0	-14.362892150878906	119.76960754394533	-746.13671875	-13.56116771697998	-115.39425659179688	-740.17138671875	-0.0	-0.0	-0.0	-0.0	-0.0	-0.0	192320.8125	-40713.39453125	-3272.335205078125
0.6355000000000001	-0.0	-0.0	-0.0	-17.122697830200195	113.08541107177734	-718.790771484375	-13.545859336853027	-111.38164520263672	-713.13671875	-0.0	-0.0	-0.0	-0.0	-0.0	-0.0	185349.171875	-38860.48828125	-3102.312744140625
0.636	-0.0	-0.0	-0.0	-22.81401252746582	108.51659393310548	-692.3521118164062	-13.522537231445312	-107.95243072509766	-688.1053466796875	-0.0	-0.0	-0.0	-0.0	-0.0	-0.0	178511.84375	-37112.80078125	-3012.396728515625
0.6365000000000001	-0.0	-0.0	-0.0	-28.6151123046875	104.63652801513672	-663.6047973632812	-13.877344131469728	-103.62173461914062	-660.3605346679688	-0.0	-0.0	-0.0	-0.0	-0.0	-0.0	171583.09375	-35334.1484375	-3227.044677734375
0.637	-0.0	-0.0	-0.0	-32.78120803833008	102.01339721679688	-635.04638671875	-14.737831115722656	-98.62885284423828	-633.2333984375	-0.0	-0.0	-0.0	-0.0	-0.0	-0.0	163977.921875	-33428.35546875	-3646.62744140625
0.6375000000000001	-0.0	-0.0	-0.0	-34.66647720336914	98.84349060058594	-612.1004638671875	-15.651496887207031	-94.3104019165039	-604.803466796875	-0.0	-0.0	-0.0	-0.0	-0.0	-0.0	156545.515625	-31134.171875	-4078.252197265625
0.638	-0.0	-0.0	-0.0	-35.04751968383789	96.627685546875	-590.2046508789062	-16.500205993652344	-88.55799102783203	-576.7228393554688	-0.0	-0.0	-0.0	-0.0	-0.0	-0.0	149331.484375	-29270.294921875	-4526.32666015625
0.6385000000000001	-0.0	-0.0	-0.0	-34.0661506652832	93.69886779785156	-568.6063842773438	-16.576879501342773	-83.90338897705078	-552.24560546875	-0.0	-0.0	-0.0	-0.0	-0.0	-0.0	142776.5625	-27641.12109375	-5012.63427734375
0.639	-0.0	-0.0	-0.0	-32.306541442871094	90.58257293701172	-552.0578002929688	-16.627216339111328	-78.84322357177734	-527.85400390625	-0.0	-0.0	-0.0	-0.0	-0.0	-0.0	136208.359375	-25973.916015625	-5061.9306640625
0.6395000000000001	-0.0	-0.0	-0.0	-29.476694107055664	87.40978240966797	-536.0687255859375	-15.98012351989746	-74.94359588623047	-504.5105895996094	-0.0	-0.0	-0.0	-0.0	-0.0	-0.0	130234.515625	-24447.5625	-5170.4267578125
0.64	-0.0	-0.0	-0.0	-26.44367218017578	84.74954986572266	-521.2402954101562	-14.725990295410156	-71.40044403076172	-483.51458740234375	-0.0	-0.0	-0.0	-0.0	-0.0	-0.0	124789.2109375	-23270.314453125	-4880.7236328125
0.6405	-0.0	-0.0	-0.0	-22.96468162536621	82.1524429321289	-507.4113464355469	-12.92586898803711	-68.61241149902344	-464.21099853515625	-0.0	-0.0	-0.0	-0.0	-0.0	-0.0	119595.328125	-22468.73828125	-4378.5712890625
0.641	-0.0	-0.0	-0.0	-19.332468032836918	79.60604095458984	-495.8626403808594	-11.291014671325684	-66.31621551513672	-447.4580383300781	-0.0	-0.0	-0.0	-0.0	-0.0	-0.0	114788.8671875	-21236.23046875	-4062.96923828125
0.6415	-0.0	-0.0	-0.0	-16.36347770690918	77.49224090576172	-483.3504943847656	-9.770610809326172	-64.94117736816406	-431.2477416992188	-0.0	-0.0	-0.0	-0.0	-0.0	-0.0	110372.8046875	-20508.302734375	-3455.872314453125
0.642	-0.0	-0.0	-0.0	-13.13939380645752	75.7225570678711	-472.6554870605469	-7.869649410247803	-63.21282958984375	-415.9379577636719	-0.0	-0.0	-0.0	-0.0	-0.0	-0.0	106569.7109375	-19484.564453125	-2962.571533203125
0.6425	-0.0	-0.0	-0.0	-10.259394645690918	73.57075500488281	-460.6487121582031	-6.285533428192139	-61.44686508178711	-402.4685974121094	-0.0	-0.0	-0.0	-0.0	-0.0	-0.0	102341.6796875	-18843.962890625	-2376.267333984375
0.643	-0.0	-0.0	-0.0	-7.519816398620605	72.15789031982422	-449.24652099609375	-5.06914758682251	-59.99571990966797	-387.857177734375	-0.0	-0.0	-0.0	-0.0	-0.0	-0.0	98705.0703125	-18140.345703125	-1938.5579833984373
0.6435	-0.0	-0.0	-0.0	-4.944097518920898	70.47757720947266	-437.5437316894531	-3.396324396133423	-58.74663543701172	-375.7373962402344	-0.0	-0.0	-0.0	-0.0	-0.0	-0.0	95543.6328125	-17203.326171875	-1525.95849609375
0.644	-0.0	-0.0	-0.0	-3.9261419773101807	68.1605453491211	-424.779541015625	-2.446256399154663	-56.954776763916016	-363.4681396484375	-0.0	-0.0	-0.0	-0.0	-0.0	-0.0	91748.546875	-16347.9140625	-1109.6160888671875
0.6445	-0.0	-0.0	-0.0	-3.378065586090088	66.01951599121094	-413.3802490234375	-1.191176176071167	-55.51714706420898	-351.59796142578125	-0.0	-0.0	-0.0	-0.0	-0.0	-0.0	88699.2109375	-15733.1962890625	-875.2056884765625
0.645	-0.0	-0.0	-0.0	-3.0331573486328125	64.0218505859375	-398.9012145996094	-0.2145681083202362	-53.91473388671875	-339.927490234375	-0.0	-0.0	-0.0	-0.0	-0.0	-0.0	85546.9765625	-14983.6767578125	-742.7711791992188
0.6455	-0.0	-0.0	-0.0	-3.175143957138061	61.87125396728516	-386.88873291015625	0.4943910837173462	-52.45118713378906	-330.30145263671875	-0.0	-0.0	-0.0	-0.0	-0.0	-0.0	83102.0625	-14332.4794921875	-580.922607421875
0.646	-0.0	-0.0	-0.0	-3.186873435974121	59.84444046020508	-373.9794921875	1.0136560201644895	-50.9122314453125	-319.8228759765625	-0.0	-0.0	-0.0	-0.0	-0.0	-0.0	80321.5625	-13358.669921875	-461.530517578125
0.6465	-0.0	-0.0	-0.0	-3.4545726776123047	57.02817153930664	-362.27294921875	1.5851409435272217	-49.71350860595703	-309.8519287109375	-0.0	-0.0	-0.0	-0.0	-0.0	-0.0	77700.7265625	-12664.91015625	-507.5177001953125
0.647	-0.0	-0.0	-0.0	-3.5305075645446777	54.739444732666016	-351.5200500488281	1.696976900100708	-48.210548400878906	-302.7144775390625	-0.0	-0.0	-0.0	-0.0	-0.0	-0.0	75679.7265625	-12469.8984375	-468.6320190429688
0.6475	-0.0	-0.0	-0.0	-4.038891315460205	53.09732437133789	-341.2251281738281	1.685504913330078	-46.88564682006836	-295.7834777832031	-0.0	-0.0	-0.0	-0.0	-0.0	-0.0	73932.9375	-11973.587890625	-549.0855102539062
0.648	-0.0	-0.0	-0.0	-4.828197479248047	51.520050048828125	-332.4493103027344	1.8119322061538696	-45.67552947998047	-289.8481140136719	-0.0	-0.0	-0.0	-0.0	-0.0	-0.0	72059.703125	-11627.8291015625	-599.1537475585938
0.6485	-0.0	-0.0	-0.0	-5.847145080566406	50.52630233764648	-325.2787475585937	1.3950425386428833	-44.47661590576172	-285.71112060546875	-0.0	-0.0	-0.0	-0.0	-0.0	-0.0	70792.265625	-10920.521484375	-794.9625244140625
0.649	-0.0	-0.0	-0.0	-6.560610294342041	49.76205062866211	-321.9919738769531	1.1155961751937866	-43.6068000793457	-281.1727294921875	-0.0	-0.0	-0.0	-0.0	-0.0	-0.0	69892.7109375	-10812.07421875	-959.531982421875
0.6495	-0.0	-0.0	-0.0	-7.26717472076416	48.33270263671875	-318.4864501953125	0.5833573341369629	-43.05011749267578	-277.8826904296875	-0.0	-0.0	-0.0	-0.0	-0.0	-0.0	69049.453125	-10424.494140625	-1065.8460693359375
0.65	-0.0	-0.0	-0.0	-7.569112777709961	48.02751922607422	-316.5583190917969	-0.2014565765857696	-42.65937805175781	-275.72314453125	-0.0	-0.0	-0.0	-0.0	-0.0	-0.0	68214.078125	-10362.8173828125	-1290.0396728515625
0.6505	-0.0	-0.0	-0.0	-7.953588962554932	47.60947799682617	-312.4699401855469	-0.3957012891769409	-42.75099563598633	-274.2318115234375	-0.0	-0.0	-0.0	-0.0	-0.0	-0.0	67598.484375	-10139.1240234375	-1473.7864990234375
0.651	-0.0	-0.0	-0.0	-8.437352180480957	47.52040863037109	-314.5343017578125	-0.747200071811676	-42.367164611816406	-271.8015441894531	-0.0	-0.0	-0.0	-0.0	-0.0	-0.0	67225.2890625	-9827.9853515625	-1430.591064453125
0.6515	-0.0	-0.0	-0.0	-9.019920349121094	47.59563446044922	-314.6662292480469	-1.3406577110290527	-42.29613876342773	-269.5844116210937	-0.0	-0.0	-0.0	-0.0	-0.0	-0.0	66369.109375	-9653.2353515625	-1672.8829345703125
0.652	-0.0	-0.0	-0.0	-8.798836708068848	47.722312927246094	-316.6536560058594	-1.82547926902771	-42.40816879272461	-268.40460205078125	-0.0	-0.0	-0.0	-0.0	-0.0	-0.0	66374.46875	-9508.4033203125	-1880.9044189453125
0.6525	-0.0	-0.0	-0.0	-7.855355262756348	47.83480453491211	-318.7728576660156	-2.521312952041626	-42.12944793701172	-269.93212890625	-0.0	-0.0	-0.0	-0.0	-0.0	-0.0	66113.578125	-9834.681640625	-1957.810791015625
0.653	-0.0	-0.0	-0.0	-6.169702053070068	47.731407165527344	-319.66412353515625	-2.712649345397949	-43.01266479492188	-271.3456726074219	-0.0	-0.0	-0.0	-0.0	-0.0	-0.0	66778.2734375	-9942.9296875	-1908.17529296875
0.6535	-0.0	-0.0	-0.0	-3.9537622928619385	47.679500579833984	-323.0112609863281	-3.090863943099976	-43.3891830444336	-275.204833984375	-0.0	-0.0	-0.0	-0.0	-0.0	-0.0	67281.359375	-10348.5107421875	-1864.8785400390625
0.654	-0.0	-0.0	-0.0	-1.991276741027832	47.91474914550781	-324.33258056640625	-3.1471352577209477	-43.98419952392578	-278.97216796875	-0.0	-0.0	-0.0	-0.0	-0.0	-0.0	68654.5	-10996.6015625	-1808.7860107421875
0.6545	-0.0	-0.0	-0.0	-0.6675778031349182	48.47258758544922	-326.07635498046875	-3.212854385375977	-45.09526062011719	-284.3916320800781	-0.0	-0.0	-0.0	-0.0	-0.0	-0.0	70022.8203125	-11525.720703125	-1662.457275390625
0.655	-0.0	-0.0	-0.0	0.7884536385536194	48.26283264160156	-328.16131591796875	-2.1893484592437744	-45.559844970703125	-289.5162048339844	-0.0	-0.0	-0.0	-0.0	-0.0	-0.0	71180.953125	-12254.3740234375	-1213.9464111328125
0.6555	-0.0	-0.0	-0.0	1.4563958644866943	48.50762939453125	-328.7530517578125	-0.8269631266593933	-46.1866340637207	-293.287353515625	-0.0	-0.0	-0.0	-0.0	-0.0	-0.0	72368.09375	-12817.9287109375	-810.3568725585938
0.656	-0.0	-0.0	-0.0	1.3381576538085938	48.10768127441406	-328.3096008300781	-0.2002854794263839	-46.85602188110352	-299.54931640625	-0.0	-0.0	-0.0	-0.0	-0.0	-0.0	74115.2109375	-13586.671875	-508.6870727539063
0.6565	-0.0	-0.0	-0.0	1.4047210216522217	47.77389526367188	-329.137451171875	0.3320879340171814	-47.85602188110352	-306.3522033691406	-0.0	-0.0	-0.0	-0.0	-0.0	-0.0	75885.296875	-14185.8623046875	-261.65594482421875
